<svg width="91" height="135" viewBox="0 0 91 135" fill="none" xmlns="http://www.w3.org/2000/svg">
<path d="M40.0984 14.3296C48.8539 14.3296 56.6116 21.4471 56.6116 30.2437C56.6116 31.0758 56.5481 31.8931 56.4256 32.6908C56.3738 33.0286 56.3114 33.363 56.2387 33.6934C56.2319 33.7937 56.2284 33.895 56.2284 33.997C56.2284 35.7183 57.217 37.2077 58.6549 37.9233C58.8935 37.9971 59.1245 38.0885 59.3464 38.196C61.0156 39.0043 62.1674 40.7203 62.1674 42.7066C62.1674 44.9003 60.8398 46.7644 58.8552 47.4401L42.433 53.3559C42.1385 53.4161 41.859 53.5182 41.6011 53.6556C40.6155 54.1806 39.9442 55.2219 39.9442 56.4207C39.9442 57.9607 41.0519 59.2407 42.5104 59.5004H43.6044H57.0426C70.1545 59.5004 81.4487 67.3677 86.5576 78.6182C88.4262 82.7331 89.4674 87.3071 89.4674 92.1255C89.4674 97.4714 88.1857 102.517 85.9142 106.968C87.6043 108.565 88.9518 110.523 89.834 112.721C90.586 114.594 91 116.64 91 118.784C91 120.964 90.5717 123.044 89.795 124.943C89.2861 126.187 88.6275 127.354 87.8419 128.421C85.1346 132.096 80.918 134.581 76.1122 134.952C75.6988 134.984 75.281 135 74.8595 135C74.4379 135 74.0202 134.984 73.6068 134.952H21.6269C21.3991 134.984 21.1665 135 20.93 135C20.6935 135 20.4609 134.984 20.2331 134.952C19.6098 134.865 19.0229 134.663 18.4945 134.369C16.9479 133.507 15.9011 131.85 15.9011 129.947C15.9011 127.41 17.7633 125.309 20.1898 124.949L20.2331 124.943C20.4609 124.911 20.6935 124.895 20.93 124.895C21.1665 124.895 21.3991 124.911 21.6269 124.943H38.8817H59.9239H71.4941H73.0522C76.1497 124.558 78.5474 121.904 78.5474 118.687C78.5474 118.018 78.4436 117.373 78.2512 116.768C77.648 114.87 76.1744 113.363 74.302 112.721H70.2444H59.8849H31.9185H21.1287H1.00136L15.6749 106.872C5.88726 95.0608 0 79.872 0 63.3018C0 34.5952 17.6694 10.0348 42.6774 0L40.0984 14.3296Z" fill="#827A7A"/>
</svg>
