<svg width="77" height="73" viewBox="0 0 77 73" fill="none" xmlns="http://www.w3.org/2000/svg">
<path d="M31.5158 22.7543C31.5268 22.5935 31.5566 22.438 31.603 22.2897C31.6601 21.92 31.6897 21.5414 31.6897 21.1558C31.6897 17.0798 28.3787 13.7755 24.2944 13.7755C24.1912 13.7755 24.0886 13.7776 23.9865 13.7818L21.4181 27.957C22.3023 28.3299 23.2742 28.536 24.2944 28.536C26.4756 28.536 28.4362 27.5937 29.7898 26.0947C29.9474 25.6879 30.2166 25.3366 30.5599 25.0782C31.0031 24.3746 31.3306 23.5911 31.5158 22.7543Z" fill="#827A7A"/>
<path d="M5.28104 36.4737C5.28104 44.1518 8.02738 51.1897 12.5932 56.6625L16.4971 55.1168L16.9863 52.4168C16.8408 51.5761 16.765 50.7117 16.765 49.8296C16.765 47.0452 17.5204 44.4368 18.8379 42.1976L20.1942 34.7123H17.1186L20.4074 33.5355L21.4181 27.957C18.7626 26.8372 16.8991 24.2137 16.8991 21.1558C16.8991 17.1827 20.045 13.9429 23.9865 13.7818L25.1895 7.14195C13.5236 11.7917 5.28104 23.1721 5.28104 36.4737Z" fill="#827A7A"/>
<path d="M32.6429 24.7142C31.9721 24.3827 31.511 23.6925 31.511 22.8949C31.511 22.8477 31.5126 22.8007 31.5158 22.7543C31.3306 23.5911 31.0031 24.3746 30.5599 25.0782C30.9489 24.7854 31.433 24.6118 31.9578 24.6118C32.1963 24.6118 32.4263 24.6476 32.6429 24.7142Z" fill="#827A7A"/>
<path d="M17.1186 34.7123H20.1942L20.4074 33.5355L17.1186 34.7123Z" fill="#827A7A"/>
<path d="M25.1117 34.7123C24.4313 34.5919 23.9146 33.9988 23.9146 33.2853C23.9146 32.7298 24.2277 32.2473 24.6875 32.004L20.4074 33.5355L20.1942 34.7123H25.1117Z" fill="#827A7A"/>
<path d="M12.6987 67.3549C12.6987 68.2366 13.187 69.0044 13.9085 69.4037L14.6993 65.0389C13.5674 65.2056 12.6987 66.179 12.6987 67.3549Z" fill="#827A7A"/>
<path d="M15.3697 69.6738C16.5115 69.5158 17.3906 68.5378 17.3906 67.3549C17.3906 66.172 16.5115 65.194 15.3697 65.036H14.7195C14.7128 65.037 14.7061 65.0379 14.6993 65.0389L13.9085 69.4037C14.155 69.5402 14.4288 69.6336 14.7196 69.6738H15.3697Z" fill="#827A7A"/>
<path d="M39.6178 69.6738C38.0446 69.5533 36.6068 68.9503 35.4526 68.0129C31.1633 67.8177 27.0967 66.7702 23.4189 65.036H15.3697C16.5115 65.194 17.3906 66.172 17.3906 67.3549C17.3906 68.5378 16.5115 69.5158 15.3697 69.6738H39.6178Z" fill="#827A7A"/>
<path d="M5.74817 59.3726H15.1373C14.2374 58.5199 13.3878 57.6149 12.5932 56.6625L5.74817 59.3726Z" fill="#827A7A"/>
<path d="M16.4971 55.1168L12.5932 56.6625C13.3878 57.6149 14.2374 58.5199 15.1373 59.3726H15.726L16.4971 55.1168Z" fill="#827A7A"/>
<path d="M20.1707 59.3726C19.0425 57.9944 18.1537 56.4136 17.5673 54.6931L16.4971 55.1168L15.726 59.3726H20.1707Z" fill="#827A7A"/>
<path d="M45.359 56.707C46.4187 54.6445 47.0166 52.3067 47.0166 49.8296C47.0166 47.5969 46.5309 45.4775 45.6592 43.5708L17.5673 54.6931C18.1537 56.4136 19.0425 57.9944 20.1707 59.3726H33.2167C34.3316 56.6145 37.0391 54.668 40.2021 54.668C42.1976 54.668 44.0117 55.4426 45.359 56.707Z" fill="#827A7A"/>
<path d="M16.765 49.8296C16.765 50.7117 16.8408 51.5761 16.9863 52.4168L18.8379 42.1976C17.5204 44.4368 16.765 47.0452 16.765 49.8296Z" fill="#827A7A"/>
<path d="M16.9863 52.4168L16.4971 55.1168L17.5673 54.6931C17.3168 53.9582 17.1215 53.1978 16.9863 52.4168Z" fill="#827A7A"/>
<path d="M21.4181 27.957L23.9865 13.7818C20.045 13.9429 16.8991 17.1827 16.8991 21.1558C16.8991 24.2137 18.7626 26.8372 21.4181 27.957Z" fill="#827A7A"/>
<path d="M23.4189 65.036C27.0967 66.7702 31.1633 67.8177 35.4526 68.0129C34.4847 67.2267 33.7163 66.2053 33.2349 65.036H23.4189Z" fill="#827A7A"/>
<path d="M46.2583 66.6475C43.306 67.5566 40.1692 68.0461 36.9178 68.0461C36.4267 68.0461 35.9383 68.035 35.4526 68.0129C36.6068 68.9503 38.0446 69.5533 39.6178 69.6738H40.7865C43.0284 69.5021 44.9954 68.3505 46.2583 66.6475Z" fill="#827A7A"/>
<path d="M39.3591 65.036C39.24 65.0508 39.1187 65.0583 38.9957 65.0583C38.8726 65.0583 38.7513 65.0508 38.6322 65.036H33.2349C33.7163 66.2053 34.4847 67.2267 35.4526 68.0129C35.9383 68.035 36.4267 68.0461 36.9178 68.0461C40.1692 68.0461 43.306 67.5566 46.2583 66.6475C46.6248 66.1533 46.932 65.6127 47.1694 65.036H39.3591Z" fill="#827A7A"/>
<path d="M41.7843 61.248C41.8741 61.5285 41.9225 61.8273 41.9225 62.1375C41.9225 63.6278 40.804 64.8575 39.3591 65.036H47.1694C47.5317 64.1561 47.7315 63.1923 47.7315 62.182C47.7315 61.1888 47.5384 60.2405 47.1876 59.3726H43.6109C43.0572 60.0491 42.4458 60.6767 41.7843 61.248Z" fill="#827A7A"/>
<path d="M43.6109 59.3726H47.1876C46.776 58.3545 46.1474 57.4469 45.359 56.707C44.8701 57.6586 44.283 58.5516 43.6109 59.3726Z" fill="#827A7A"/>
<path d="M38.0492 59.3726C38.3461 59.2715 38.6645 59.2166 38.9957 59.2166C39.3269 59.2166 39.6452 59.2715 39.9421 59.3726H43.6109C44.283 58.5516 44.8701 57.6586 45.359 56.707C44.0117 55.4426 42.1976 54.668 40.2021 54.668C37.0391 54.668 34.3316 56.6145 33.2167 59.3726H38.0492Z" fill="#827A7A"/>
<path d="M41.7843 61.248C42.4458 60.6767 43.0572 60.0491 43.6109 59.3726H39.9421C40.8155 59.6703 41.503 60.3687 41.7843 61.248Z" fill="#827A7A"/>
<path d="M25.622 34.7123C25.5391 34.7269 25.4539 34.7346 25.3668 34.7346C25.2798 34.7346 25.1945 34.7269 25.1117 34.7123H20.1942L18.8379 42.1976C21.4651 37.7323 26.3271 34.7123 31.8908 34.7123H25.622Z" fill="#827A7A"/>
<path d="M18.8379 42.1976L16.9863 52.4168C17.1215 53.1978 17.3168 53.9582 17.5673 54.6931L45.6592 43.5708C43.2759 38.3577 38.0073 34.7123 31.8908 34.7123C26.3271 34.7123 21.4651 37.7323 18.8379 42.1976Z" fill="#827A7A"/>
<path d="M29.7898 26.0947C29.9474 25.6879 30.2166 25.3366 30.5599 25.0782C30.3325 25.4393 30.0746 25.7793 29.7898 26.0947Z" fill="#827A7A"/>
<path d="M31.9578 29.2495C32.2344 29.2495 32.4957 29.2054 32.7363 29.124C33.6621 28.8109 34.2814 27.9471 34.2814 26.9307C34.2814 26.0103 33.7441 25.2151 32.9655 24.8406C32.8536 24.8075 32.7458 24.7651 32.6429 24.7142C32.4263 24.6476 32.1963 24.6118 31.9578 24.6118C31.433 24.6118 30.9489 24.7854 30.5599 25.0782C30.3325 25.4393 30.0746 25.7793 29.7898 26.0947C29.6893 26.354 29.6342 26.6359 29.6342 26.9307C29.6342 28.2113 30.6745 29.2495 31.9578 29.2495Z" fill="#827A7A"/>
<path d="M32.7363 29.124C32.4957 29.2054 32.2344 29.2495 31.9578 29.2495C30.6745 29.2495 29.6342 28.2113 29.6342 26.9307C29.6342 26.6359 29.6893 26.354 29.7898 26.0947C28.4362 27.5937 26.4756 28.536 24.2944 28.536C23.2742 28.536 22.3023 28.3299 21.4181 27.957L20.4074 33.5355L24.6875 32.004C24.8078 31.9403 24.9381 31.8931 25.0756 31.8651L32.7363 29.124Z" fill="#827A7A"/>
</svg>
