<svg width="200" height="200" viewBox="0 0 200 200" fill="none" xmlns="http://www.w3.org/2000/svg">
<path d="M160.7 175.69H39.3C35.3218 175.69 31.5065 174.11 28.6934 171.297C25.8804 168.484 24.3 164.668 24.3 160.69V60C24.3 56.0218 25.8804 52.2064 28.6934 49.3934C31.5065 46.5804 35.3218 45 39.3 45H100C101.326 45 102.598 45.5268 103.536 46.4645C104.473 47.4021 105 48.6739 105 50C105 51.3261 104.473 52.5979 103.536 53.5355C102.598 54.4732 101.326 55 100 55H39.3C37.974 55 36.7022 55.5268 35.7645 56.4645C34.8268 57.4021 34.3 58.6739 34.3 60V160.7C34.3 162.026 34.8268 163.298 35.7645 164.236C36.7022 165.173 37.974 165.7 39.3 165.7H160.7C162.026 165.7 163.298 165.173 164.236 164.236C165.173 163.298 165.7 162.026 165.7 160.7V150C165.7 148.674 166.227 147.402 167.165 146.464C168.102 145.527 169.374 145 170.7 145C172.026 145 173.298 145.527 174.236 146.464C175.173 147.402 175.7 148.674 175.7 150V160.7C175.697 164.677 174.116 168.489 171.303 171.3C168.49 174.111 164.677 175.69 160.7 175.69Z" fill="#827A7A"/>
<path d="M146.47 155C145.791 155 145.118 154.862 144.494 154.594C143.87 154.326 143.307 153.933 142.84 153.44L119.13 128.44C118.25 127.511 117.76 126.28 117.76 125V29.31C117.76 27.9839 118.287 26.7121 119.224 25.7745C120.162 24.8368 121.434 24.31 122.76 24.31H170.17C171.496 24.31 172.768 24.8368 173.706 25.7745C174.643 26.7121 175.17 27.9839 175.17 29.31V125C175.17 126.28 174.68 127.511 173.8 128.44L150.09 153.44C149.624 153.932 149.063 154.324 148.44 154.592C147.818 154.86 147.148 154.999 146.47 155ZM127.76 123L146.47 142.72L165.17 123V34.31H127.76V123Z" fill="#827A7A"/>
<path d="M170.17 55H122.76C121.434 55 120.162 54.4732 119.224 53.5355C118.287 52.5979 117.76 51.3261 117.76 50C117.76 48.6739 118.287 47.4021 119.224 46.4645C120.162 45.5268 121.434 45 122.76 45H170.17C171.496 45 172.768 45.5268 173.706 46.4645C174.643 47.4021 175.17 48.6739 175.17 50C175.17 51.3261 174.643 52.5979 173.706 53.5355C172.768 54.4732 171.496 55 170.17 55Z" fill="#827A7A"/>
<path d="M100 92H58.67C57.344 92 56.0722 91.4732 55.1345 90.5355C54.1968 89.5979 53.67 88.3261 53.67 87C53.67 85.6739 54.1968 84.4021 55.1345 83.4645C56.0722 82.5268 57.344 82 58.67 82H100C101.326 82 102.598 82.5268 103.536 83.4645C104.473 84.4021 105 85.6739 105 87C105 88.3261 104.473 89.5979 103.536 90.5355C102.598 91.4732 101.326 92 100 92Z" fill="#827A7A"/>
<path d="M100 117H58.67C57.344 117 56.0722 116.473 55.1345 115.536C54.1968 114.598 53.67 113.326 53.67 112C53.67 110.674 54.1968 109.402 55.1345 108.464C56.0722 107.527 57.344 107 58.67 107H100C101.326 107 102.598 107.527 103.536 108.464C104.473 109.402 105 110.674 105 112C105 113.326 104.473 114.598 103.536 115.536C102.598 116.473 101.326 117 100 117Z" fill="#827A7A"/>
<path d="M100 142H58.67C57.344 142 56.0722 141.473 55.1345 140.536C54.1968 139.598 53.67 138.326 53.67 137C53.67 135.674 54.1968 134.402 55.1345 133.464C56.0722 132.527 57.344 132 58.67 132H100C101.326 132 102.598 132.527 103.536 133.464C104.473 134.402 105 135.674 105 137C105 138.326 104.473 139.598 103.536 140.536C102.598 141.473 101.326 142 100 142Z" fill="#827A7A"/>
</svg>
