<svg width="505" height="193" viewBox="0 0 505 193" fill="none" xmlns="http://www.w3.org/2000/svg">
<path opacity="0.6" d="M383.306 0.23837C266.106 -3.76163 79.8061 43.5717 1.30612 67.7384C-1.89388 83.7384 1.30613 103.238 5.30612 107.238C42.1061 91.2384 288.806 22.2384 383.306 38.7384C386.506 29.9384 388.806 13.2384 383.306 0.23837Z" fill="#D5C6E0"/>
<path opacity="0.6" d="M383.306 0.238281C299.706 7.43828 175.306 56.7383 70.8063 100.738C65.8063 112.238 66.4063 122.938 74.8063 139.738C116.806 111.738 318.506 35.1383 383.306 38.7383C385.806 32.0716 389.306 15.0383 383.306 0.238281Z" fill="#D5C6E0"/>
<path opacity="0.6" d="M500.576 52.9746C416.678 51.5998 287.894 87.9385 179.447 121.037C173.298 131.966 172.803 142.672 179.443 160.242C224.083 136.677 432.551 81.0749 496.644 91.2734C499.812 84.8968 505.033 68.31 500.576 52.9746Z" fill="#D5C6E0"/>
<path opacity="0.6" d="M502.306 56.7386C369.906 39.9386 204.806 58.7385 70.8062 100.739C64.0062 116.339 70.6395 133.239 74.8062 139.739C214.006 102.139 296.806 74.7385 496.306 100.739C507.506 82.7386 504.973 63.9053 502.306 56.7386Z" fill="#D5C6E0"/>
</svg>
