<svg width="505" height="161" viewBox="0 0 505 161" fill="none" xmlns="http://www.w3.org/2000/svg">
<g opacity="0.6">
<path d="M383.306 0.23837C266.106 -3.76163 79.8061 43.5717 1.30612 67.7384C-1.89388 83.7384 1.30613 103.238 5.30612 107.238C42.1061 91.2384 288.806 22.2384 383.306 38.7384C386.506 29.9384 388.806 13.2384 383.306 0.23837Z" fill="#B5C29E"/>
<path d="M383.306 0.23837C299.706 7.43837 175.306 56.7383 70.806 100.738C65.8061 112.238 66.406 122.938 74.806 139.738C116.806 111.738 318.506 35.1384 383.306 38.7384C385.806 32.0717 389.306 15.0384 383.306 0.23837Z" fill="#B5C29E"/>
<path d="M500.576 52.9746C416.678 51.5999 287.894 87.9385 179.447 121.037C173.298 131.966 172.803 142.672 179.443 160.242C224.083 136.677 432.551 81.0749 496.644 91.2734C499.812 84.8968 505.033 68.31 500.576 52.9746Z" fill="#B5C29E"/>
<path d="M502.306 56.7386C369.906 39.9386 204.806 58.7382 70.806 100.738C64.006 116.338 70.6394 133.238 74.806 139.738C214.006 102.138 296.806 74.7385 496.306 100.739C507.506 82.7386 504.973 63.9053 502.306 56.7386Z" fill="#B5C29E"/>
</g>
</svg>
