<svg width="109" height="51" viewBox="0 0 109 51" fill="none" xmlns="http://www.w3.org/2000/svg">
<path opacity="0.6" d="M102.116 0.0733527C70.893 -1.15755 21.2611 13.4081 0.347963 20.8448C-0.504546 25.7684 0.347964 31.7691 1.4136 33C11.2174 28.0764 76.9405 6.84332 102.116 11.9208C102.969 9.21281 103.581 4.07379 102.116 0.0733527Z" fill="#B86A6A"/>
<path opacity="0.6" d="M100.967 0.205207C69.9139 3.68059 23.0346 25.5397 3.47663 36.0348C3.37374 41.0306 5.11837 46.835 6.35688 47.8918C15.3095 41.5507 77.0951 10.6818 102.748 11.9181C103.184 9.11275 103.017 3.94001 100.967 0.205207Z" fill="#B86A6A"/>
<path opacity="0.6" d="M107.436 17.6937C76.2817 15.2853 26.1354 27.9676 4.95655 34.6097C3.91884 39.4977 4.54428 45.5262 5.5627 46.7964C15.5454 42.2463 82.023 23.5087 106.989 29.5327C107.943 26.8588 108.749 21.7466 107.436 17.6937Z" fill="#B86A6A"/>
</svg>
