<svg width="737" height="1024" viewBox="0 0 737 1024" fill="none" xmlns="http://www.w3.org/2000/svg">
<g clip-path="url(#clip0_258_5296)">
<rect width="737" height="1024" rx="30" fill="white"/>
<g opacity="0.6">
<path d="M0 96L737 96.0001" stroke="#827A7A"/>
<path d="M0 117.582L737 117.582" stroke="#827A7A"/>
<path d="M0 139.163L737 139.163" stroke="#827A7A"/>
<path d="M0 160.744L737 160.744" stroke="#827A7A"/>
<path d="M0 182.326L737 182.326" stroke="#827A7A"/>
<path d="M0 203.907L737 203.907" stroke="#827A7A"/>
<path d="M0 225.488L737 225.488" stroke="#827A7A"/>
<path d="M0 247.07L737 247.07" stroke="#827A7A"/>
<path d="M0 268.651L737 268.651" stroke="#827A7A"/>
<path d="M0 290.232L737 290.232" stroke="#827A7A"/>
<path d="M0 311.814L737 311.814" stroke="#827A7A"/>
<path d="M0 333.396L737 333.396" stroke="#827A7A"/>
<path d="M0 354.977L737 354.977" stroke="#827A7A"/>
<path d="M0 376.558L737 376.558" stroke="#827A7A"/>
<path d="M0 398.14L737 398.14" stroke="#827A7A"/>
<path d="M0 419.721L737 419.721" stroke="#827A7A"/>
<path d="M0 441.302L737 441.302" stroke="#827A7A"/>
<path d="M0 462.884L737 462.884" stroke="#827A7A"/>
<path d="M0 484.465L737 484.465" stroke="#827A7A"/>
<path d="M0 506.046L737 506.046" stroke="#827A7A"/>
<path d="M0 527.628L737 527.628" stroke="#827A7A"/>
<path d="M0 549.209L737 549.209" stroke="#827A7A"/>
<path d="M0 570.791L737 570.791" stroke="#827A7A"/>
<path d="M0 592.372L737 592.372" stroke="#827A7A"/>
<path d="M0 613.954L737 613.954" stroke="#827A7A"/>
<path d="M0 635.535L737 635.535" stroke="#827A7A"/>
<path d="M0 657.116L737 657.116" stroke="#827A7A"/>
<path d="M0 678.698L737 678.698" stroke="#827A7A"/>
<path d="M0 700.279L737 700.279" stroke="#827A7A"/>
<path d="M0 721.86L737 721.86" stroke="#827A7A"/>
<path d="M0 743.442L737 743.442" stroke="#827A7A"/>
<path d="M0 765.023L737 765.024" stroke="#827A7A"/>
<path d="M0 786.605L737 786.605" stroke="#827A7A"/>
<path d="M0 808.186L737 808.186" stroke="#827A7A"/>
<path d="M0 829.768L737 829.768" stroke="#827A7A"/>
<path d="M0 851.349L737 851.349" stroke="#827A7A"/>
<path d="M0 872.931L737 872.931" stroke="#827A7A"/>
<path d="M0 894.512L737 894.512" stroke="#827A7A"/>
<path d="M0 916.093L737 916.093" stroke="#827A7A"/>
<path d="M0 937.675L737 937.675" stroke="#827A7A"/>
<path d="M0 959.256L737 959.256" stroke="#827A7A"/>
<path d="M0 980.837L737 980.837" stroke="#827A7A"/>
<path d="M0 1002.42L737 1002.42" stroke="#827A7A"/>
<path d="M0 1024L737 1024" stroke="#827A7A"/>
</g>
<path d="M96 0L96 1024" stroke="#E66161"/>
<g filter="url(#filter0_i_258_5296)">
<circle cx="48" cy="94" r="11" fill="#201F1F"/>
</g>
<g filter="url(#filter1_i_258_5296)">
<circle cx="48" cy="532" r="11" fill="#201F1F"/>
</g>
<g filter="url(#filter2_i_258_5296)">
<circle cx="48" cy="970" r="11" fill="#201F1F"/>
</g>
</g>
<defs>
<filter id="filter0_i_258_5296" x="37" y="83" width="26" height="26" filterUnits="userSpaceOnUse" color-interpolation-filters="sRGB">
<feFlood flood-opacity="0" result="BackgroundImageFix"/>
<feBlend mode="normal" in="SourceGraphic" in2="BackgroundImageFix" result="shape"/>
<feColorMatrix in="SourceAlpha" type="matrix" values="0 0 0 0 0 0 0 0 0 0 0 0 0 0 0 0 0 0 127 0" result="hardAlpha"/>
<feOffset dx="4" dy="4"/>
<feGaussianBlur stdDeviation="2"/>
<feComposite in2="hardAlpha" operator="arithmetic" k2="-1" k3="1"/>
<feColorMatrix type="matrix" values="0 0 0 0 0.508333 0 0 0 0 0.476562 0 0 0 0 0.476562 0 0 0 0.25 0"/>
<feBlend mode="normal" in2="shape" result="effect1_innerShadow_258_5296"/>
</filter>
<filter id="filter1_i_258_5296" x="37" y="521" width="26" height="26" filterUnits="userSpaceOnUse" color-interpolation-filters="sRGB">
<feFlood flood-opacity="0" result="BackgroundImageFix"/>
<feBlend mode="normal" in="SourceGraphic" in2="BackgroundImageFix" result="shape"/>
<feColorMatrix in="SourceAlpha" type="matrix" values="0 0 0 0 0 0 0 0 0 0 0 0 0 0 0 0 0 0 127 0" result="hardAlpha"/>
<feOffset dx="4" dy="4"/>
<feGaussianBlur stdDeviation="2"/>
<feComposite in2="hardAlpha" operator="arithmetic" k2="-1" k3="1"/>
<feColorMatrix type="matrix" values="0 0 0 0 0.508333 0 0 0 0 0.476562 0 0 0 0 0.476562 0 0 0 0.25 0"/>
<feBlend mode="normal" in2="shape" result="effect1_innerShadow_258_5296"/>
</filter>
<filter id="filter2_i_258_5296" x="37" y="959" width="26" height="26" filterUnits="userSpaceOnUse" color-interpolation-filters="sRGB">
<feFlood flood-opacity="0" result="BackgroundImageFix"/>
<feBlend mode="normal" in="SourceGraphic" in2="BackgroundImageFix" result="shape"/>
<feColorMatrix in="SourceAlpha" type="matrix" values="0 0 0 0 0 0 0 0 0 0 0 0 0 0 0 0 0 0 127 0" result="hardAlpha"/>
<feOffset dx="4" dy="4"/>
<feGaussianBlur stdDeviation="2"/>
<feComposite in2="hardAlpha" operator="arithmetic" k2="-1" k3="1"/>
<feColorMatrix type="matrix" values="0 0 0 0 0.508333 0 0 0 0 0.476562 0 0 0 0 0.476562 0 0 0 0.25 0"/>
<feBlend mode="normal" in2="shape" result="effect1_innerShadow_258_5296"/>
</filter>
<clipPath id="clip0_258_5296">
<rect width="737" height="1024" rx="30" fill="white"/>
</clipPath>
</defs>
</svg>
