<svg width="582" height="56" viewBox="0 0 582 56" fill="none" xmlns="http://www.w3.org/2000/svg">
<path opacity="0.6" d="M86.7975 0.882139C51.713 0.0890094 14.314 2.86496 0 4.35208L12.7912 17.736C12.7912 20.7103 13.1567 27.1544 14.6185 29.1373C16.0804 31.1201 17.664 33.9291 18.2732 35.0857L12.7912 39.0514L10.9639 41.5299H16.4458L7.30926 43.5127C21.3187 44.3389 72.6887 58.276 89.5 55.5C110.514 52.0301 167.218 52.9871 193.5 51.5C208.83 50.6326 270.443 46.8174 299.68 47.4784C339.272 47.8089 421.562 48.2715 433.987 47.4784C449.52 46.487 507.994 50.4526 530.835 49.9569C549.108 49.5604 567.077 46.8174 573.777 45.4956L569.209 43.5127L573.777 32.6072L578.345 28.1458L582 25.1716L576.518 13.7704L578.345 10.3004L564.641 6.83048L573.777 5.83907L562.813 3.85625H573.777L578.345 1.87371C505.557 0.717058 352.124 -1.10056 320.694 0.882139C281.407 3.36052 223.846 4.35208 211.055 4.35208C198.264 4.35208 130.653 1.87355 86.7975 0.882139Z" fill="#A1B5D8"/>
</svg>
